<svg xmlns="http://www.w3.org/2000/svg" viewBox="0 0 3600 3600"><path d="M3275.58,2523.89,3044.42,1874.4c-70.91-223.6-320.63-304.85-641.8-329.22,201.06-248.13,199-547.45,34.43-887.72C2276.77,350.83,2090.49,103.19,1800,91.88c-290.49,11.31-476.77,259-637,565.58-164.57,340.27-166.63,639.59,34.43,887.72-321.17,24.37-570.91,105.62-641.82,329.22L324.42,2523.89c-51.52,121.9,25,243.39,115.57,388.52C490.25,3003,622.45,3131.53,782.75,3273c12.93,11.42,33.17,1.17,31.59-16l-89.1-976.57c-5.4-68.89,28.34-100.79,98.36-98.37H2776.4c70-2.42,103.74,29.48,98.36,98.37L2785.66,3257c-1.58,17.17,18.66,27.42,31.59,16,160.29-141.48,292.5-270,342.76-360.6C3250.59,2767.28,3327.1,2645.79,3275.58,2523.89Zm-1116.33-1560c15.16,110.66-36.68,182.07-109.74,190.88-92.52,9.63-129.82-31.34-159.84-115.26C1889.67,997.63,2129.94,932.47,2159.25,963.92Zm-720.27,0c29.31-31.45,269.58,33.71,269.58,75.62-30,83.92-67.32,124.89-159.84,115.26C1475.67,1146,1423.82,1074.58,1439,963.92Zm774.32,452.2c-56.08,126.76-203.38,263.85-413.24,327h-.83c-209.87-63.17-357.16-200.26-413.25-327-62.45-141.15-57.2-280.22-57.2-280.22,1.24-25.51,20.75-26.73,31.36-17.52,67.62,63.94,120.65,108.35,213.71,106.14,115.34-5.78,169.53-125.65,225.79-125.65s110.45,119.87,225.8,125.65c93.06,2.21,146.08-42.2,213.7-106.14,10.61-9.21,30.13-8,31.36,17.52C2270.5,1135.9,2275.74,1275,2213.3,1416.12Z"/><path d="M2773.27,2247.55H827a46.48,46.48,0,0,0-46.28,50.82l99,1057.9h1834.1l100.39-1063.68A41.17,41.17,0,0,0,2773.27,2247.55ZM2244.9,2567.39c-2.4,12.78-13.78,25.82-33.75,26.15h-31.81V2655a13.92,13.92,0,0,1-13.92,13.92h-45.51v369.3h46.33a13.93,13.93,0,0,1,13.92,13.92v46.74h45.09a13.91,13.91,0,0,1,13.92,13.91v93a13.92,13.92,0,0,1-13.92,13.92H1374.83a13.93,13.93,0,0,1-13.92-13.92v-93a13.92,13.92,0,0,1,13.92-13.91h45.11v-46.74a13.92,13.92,0,0,1,13.92-13.92h48V2669h-47.57a13.93,13.93,0,0,1-13.92-13.92v-63H1391.8c-18.62-.12-32.85-9.8-36.31-24.69-3.15-13.5,3.78-27.07,17.23-33.8.36-.18.72-.34,1.1-.5l421.06-166.4a14,14,0,0,1,10.19,0l418.71,163.94.2.08C2239.2,2536.93,2247.8,2552,2244.9,2567.39Z"/><path d="M2166.24,3126.74a13.92,13.92,0,0,1-13.92-13.92v-46.73H1447.77v46.73a13.91,13.91,0,0,1-13.91,13.92h-45.11v65.2h822.58v-65.2Zm-656.57,16.42a13.92,13.92,0,0,1-27.84,0v-31.77a13.92,13.92,0,1,1,27.84,0Zm76,0a13.92,13.92,0,1,1-27.83,0v-31.77a13.92,13.92,0,1,1,27.83,0Zm76,0a13.92,13.92,0,0,1-27.84,0v-31.77a13.92,13.92,0,0,1,27.84,0Zm76.43,0a13.92,13.92,0,1,1-27.83,0v-31.77a13.92,13.92,0,1,1,27.83,0Zm75.81,0a13.92,13.92,0,0,1-27.84,0v-31.77a13.92,13.92,0,0,1,27.84,0Zm75.82,0a13.92,13.92,0,1,1-27.83,0v-31.77a13.92,13.92,0,1,1,27.83,0Zm76.44,0a13.92,13.92,0,0,1-27.84,0v-31.77a13.92,13.92,0,0,1,27.84,0Zm76,0a13.92,13.92,0,0,1-27.84,0v-31.77a13.92,13.92,0,0,1,27.84,0Zm76,0a13.92,13.92,0,0,1-27.84,0v-31.77a13.92,13.92,0,0,1,27.84,0Z"/><rect x="2028.53" y="2668.95" width="63.55" height="369.3"/><path d="M2213.5,2556.47,1800,2394.58l-415.27,164.1c-1.63.92-2.24,1.94-2.14,2.37.22,1,2.88,3.13,9.28,3.17l591.89-.06a13.92,13.92,0,1,1,0,27.84l-535.59.06v49.05H2151.5v-61.48a13.92,13.92,0,0,1,13.92-13.92h45.37c1.92,0,6.19-.49,6.76-3.47C2217.87,2560.49,2217,2557.94,2213.5,2556.47Zm-413.4-20.93a47.58,47.58,0,1,1,47.58-47.57A47.62,47.62,0,0,1,1800.1,2535.54ZM2106,2592.31h-63.11a13.92,13.92,0,0,1,0-27.84H2106a13.92,13.92,0,0,1,0,27.84Z"/><path d="M1821,2488a19.62,19.62,0,1,1-19.62-19.61A19.62,19.62,0,0,1,1821,2488Z"/><rect x="1509.67" y="2668.95" width="63.55" height="369.3"/><path d="M1601.05,2669v369.3h399.64V2669Zm257.61,273.2c-10.28,10.13-25.27,16.08-44.64,17.73v15.65a13.92,13.92,0,0,1-27.84,0v-16c-53.81-5.79-62.2-38.94-62.14-59.2a13.93,13.93,0,0,1,13.92-13.88h0a13.9,13.9,0,0,1,13.87,14c0,8.32,0,26.59,34.31,31.14v-32.6a13.92,13.92,0,0,1,27.84,0v33c11.44-1.24,19.86-4.45,25.1-9.63s7.64-12.51,7.67-22.78c-.58-15.91-6.54-32-45.09-32-.48,0-1,0-1.46,0h-1c-63.68,0-74.48-37.65-75.23-60.18,0-.51,0-1,0-1.51,1.52-20.08,11.83-52.7,62.06-57.87l-.06-17.07a13.91,13.91,0,0,1,13.88-14h0a13.91,13.91,0,0,1,13.92,13.87l0,17.08c47.25,4.59,59.25,33.57,60.63,58.2a13.92,13.92,0,1,1-27.8,1.58c-.94-16.93-7.22-32.57-46.35-32.57h-.35c-39.93.11-46.89,17-48.2,32.07.63,14.29,5.75,28.62,34.28,31.84V2807.5a13.92,13.92,0,0,1,27.84,0v32.68c15.5,1.35,27.94,5.4,37.71,12.24,14.49,10.16,22.2,25.78,22.88,46.42a3.24,3.24,0,0,1,0,.45C1874.64,2917.27,1869.27,2931.69,1858.66,2942.15Z"/><path d="M884,3401.76H2709.58l-7.19,76.25a33.22,33.22,0,0,1-33.09,30.11h-1745a33.24,33.24,0,0,1-33.1-30.14Z"/></svg>