<svg xmlns="http://www.w3.org/2000/svg" viewBox="0 0 3600 3600"><path d="M1997.76,2254.82c-337.13,80.31-243,434.79-523.81,420.23" style="fill:none;stroke:#000;stroke-linecap:round;stroke-miterlimit:10;stroke-width:100px"/><ellipse cx="1731.05" cy="2458.25" rx="337.06" ry="281.74" transform="translate(-1240.6 2001.32) rotate(-46.11)" style="fill:none;stroke:#000;stroke-linecap:round;stroke-miterlimit:10;stroke-width:100px"/><path d="M545,1844c-75,250.28-104.86,492.17-39.89,716.42,88.78,271.66,74.87,292.2-110,502.23-36.44,39.1-29.15,82.16,25.18,98.07,170.69,22.39,355.36,3.36,549.94-45.06,695.37,174.53,1726,76.2,2126.87-200.1,28.27-22.08,40.19-49,35.78-79.51-29.22-169.89-136.84-338.27-267.68-506.21" style="fill:none;stroke:#000;stroke-linecap:round;stroke-linejoin:round;stroke-width:100px"/><path d="M701.22,2047.58c-325.63-334.35-340.4-719.86-55.66-1183.81-6.62,347,371.05,605.38,751.37,606l658.6,1.33c467.78,0,904.41-242.51,703.65-804.37,373.7,346.52,265.7,932.9-161.66,1191.31-751.37,396.74-1299.1-225.72-1795.59-14.58" style="fill:none;stroke:#000;stroke-linecap:round;stroke-linejoin:round;stroke-width:100px"/><path d="M804.58,2775.09c233.26,211.87,519.12,277.37,853.4,208" style="fill:none;stroke:#000;stroke-linecap:round;stroke-linejoin:round;stroke-width:100px"/><path d="M2845.34,1626.72c303.38,519.89-7.91,837.9-503.58,1095.36" style="fill:none;stroke:#000;stroke-linecap:round;stroke-linejoin:round;stroke-width:100px"/><path d="M504.33,1150.28c208.82,778,2451,669.37,2479.43-35.67" style="fill:none;stroke:#000;stroke-linecap:round;stroke-linejoin:round;stroke-width:100px"/><path d="M990.87,805.79c-200.45,47.75-166.89,244.28-298.56,271" style="fill:none;stroke:#000;stroke-linecap:round;stroke-miterlimit:10;stroke-width:100px"/><path d="M638.55,877.2a257.27,257.27,0,0,1,46.31-66.14c84.08-87.39,211.46-101.27,284.5-31s64.11,198.1-20,285.49c-64.75,67.3-155.16,91-226.67,66.25" style="fill:none;stroke:#000;stroke-linecap:round;stroke-miterlimit:10;stroke-width:100px"/><path d="M2717.19,602.72C2497.56,655.05,2558.85,886,2376,876.49" style="fill:none;stroke:#000;stroke-linecap:round;stroke-miterlimit:10;stroke-width:100px"/><ellipse cx="2543.43" cy="735.25" rx="219.58" ry="183.54" transform="translate(250.17 2058.34) rotate(-46.11)" style="fill:none;stroke:#000;stroke-linecap:round;stroke-miterlimit:10;stroke-width:100px"/><path d="M2014.92,436.48c52.15,219.67,283.13,158.55,273.5,341.45" style="fill:none;stroke:#000;stroke-linecap:round;stroke-miterlimit:10;stroke-width:100px"/><path d="M2043.69,762.82A264.56,264.56,0,0,1,2020,742.5C1932.63,658.35,1918.86,531,1989.19,458s198.15-64,285.48,20.2,101.09,211.53,30.76,284.53c-31.6,32.79-74.81,49-120.72,49.33" style="fill:none;stroke:#000;stroke-linecap:round;stroke-miterlimit:10;stroke-width:100px"/><path d="M1091.78,612.22c65.06,216.19,292,141.52,293.23,324.66" style="fill:none;stroke:#000;stroke-linecap:round;stroke-miterlimit:10;stroke-width:100px"/><ellipse cx="1234.22" cy="777.93" rx="183.54" ry="219.58" transform="translate(-159.23 1210.12) rotate(-49.45)" style="fill:none;stroke:#000;stroke-linecap:round;stroke-miterlimit:10;stroke-width:100px"/><path d="M1457.12,589.25c205.3,93.94,299.12-125.79,437.44-5.74" style="fill:none;stroke:#000;stroke-linecap:round;stroke-miterlimit:10;stroke-width:100px"/><ellipse cx="1675.63" cy="591.74" rx="219.58" ry="183.54" transform="translate(-66.78 242.58) rotate(-8.12)" style="fill:none;stroke:#000;stroke-linecap:round;stroke-miterlimit:10;stroke-width:100px"/><path d="M1471.22,1270.17c-189.3-123-314.34,80.55-433.55-58.49" style="fill:none;stroke:#000;stroke-linecap:round;stroke-miterlimit:10;stroke-width:100px"/><ellipse cx="1255.44" cy="1235.65" rx="183.54" ry="219.58" transform="translate(12.89 2484.26) rotate(-89.68)" style="fill:none;stroke:#000;stroke-linecap:round;stroke-miterlimit:10;stroke-width:100px"/><path d="M1582.59,775c-61.85,217.14,169.53,276.7,71.74,431.56" style="fill:none;stroke:#000;stroke-linecap:round;stroke-miterlimit:10;stroke-width:100px"/><ellipse cx="1613.13" cy="991.4" rx="183.54" ry="219.58" transform="translate(-217.75 508.76) rotate(-16.81)" style="fill:none;stroke:#000;stroke-linecap:round;stroke-miterlimit:10;stroke-width:100px"/><path d="M1932.21,799c69.63,214.77,294.95,135.29,300.05,318.37" style="fill:none;stroke:#000;stroke-linecap:round;stroke-miterlimit:10;stroke-width:100px"/><ellipse cx="2078.14" cy="961.61" rx="183.54" ry="219.58" transform="translate(17.26 1959.67) rotate(-50.67)" style="fill:none;stroke:#000;stroke-linecap:round;stroke-miterlimit:10;stroke-width:100px"/><path d="M2010.52,1199.59c-165.2,39.36-171.46,179.76-242.26,242.9" style="fill:none;stroke:#000;stroke-linecap:round;stroke-miterlimit:10;stroke-width:100px"/><path d="M1653.43,1448.21c-36.44-72.08-18.14-171.41,51.07-243.35,84.08-87.39,211.46-101.26,284.51-31,70.9,68.21,64.56,190.63-12.76,277.68" style="fill:none;stroke:#000;stroke-linecap:round;stroke-miterlimit:10;stroke-width:100px"/><path d="M2296.43,1105.73C2378,1279,2544,1228.12,2609.68,1319.14" style="fill:none;stroke:#000;stroke-linecap:round;stroke-miterlimit:10;stroke-width:100px"/><path d="M2398.28,1422.23a263,263,0,0,1-34.06-18c-102.75-64.41-142.39-186.26-88.55-272.14s180.78-103.29,283.53-38.88c67,42,107.19,108.46,112.09,173.43" style="fill:none;stroke:#000;stroke-linecap:round;stroke-miterlimit:10;stroke-width:100px"/></svg>