<svg xmlns="http://www.w3.org/2000/svg" viewBox="0 0 3600 3600"><path d="M648.41,2395.4l835.79,708.49c-102.35-384.23,195.88-536.74,556-653.44,360.29-117,767-332.86,1019.8-718.15l-548.42-209.12c-115.29-204.22,105.62-519.88,365-489.39L1850.32,403.72c-303.21-42.17-543.71,358.5-169,592,104.09,51.63,167,77.3,129.2,118-565.85,580.33-799.29,291.83-1221.84,725C442.33,2018,476.45,2204.05,648.41,2395.4Z" style="fill:#4883fe"/><path d="M3063.66,1709.86c-103.67,126.32-372.66-62.3-518.93-154.23-239.37-278.57,205.41-651.19,409.37-485.18C3166.24,1246.58,3190.14,1430.86,3063.66,1709.86Z" style="fill:#455cd6"/><path d="M1556.92,3180.33c182.51,153.66,587-148.85,437.19-390l-275.65-206.92C1464.08,2754,1397,2951.1,1556.92,3180.33Z" style="fill:#455cd6"/><path d="M2836.52,1023.1c59.9,110.78-1150.21-664.54-1026.06-626.12L2355.22,710Z" style="fill:#455cd6"/><path d="M2897.45,1383.85c22.8-120.56,3.05-236.74-68.72-337.84" style="fill:none;stroke:#fff;stroke-linecap:round;stroke-miterlimit:10;stroke-width:3px"/><path d="M1281.45,2937.68c-83.8-365.92,132.31-500.71,681.35-690.09,410.42-146.52,736.76-415.8,873.72-688.79" style="fill:none;stroke:#fff;stroke-linecap:round;stroke-miterlimit:10;stroke-width:3px"/><path d="M2821.59,1335.8c17.59-99.55,5.79-196-40.83-283.09" style="fill:none;stroke:#fff;stroke-linecap:round;stroke-miterlimit:10;stroke-width:3px"/><path d="M1214.75,2886.11c-83.27-363.58,131.45-497.51,677-685.68,358.62-128,652.63-350.37,810.87-586.6" style="fill:none;stroke:#fff;stroke-linecap:round;stroke-miterlimit:10;stroke-width:3px"/><path d="M2688,1251.19c11.4-56,13.55-111.17,5.5-164.36" style="fill:none;stroke:#fff;stroke-linecap:round;stroke-miterlimit:10;stroke-width:3px"/><path d="M1091.84,2774.12c-84.21-362.09,129.7-494.72,673.6-680.33,330.63-116.81,605.87-314.07,769.76-528.63" style="fill:none;stroke:#fff;stroke-linecap:round;stroke-miterlimit:10;stroke-width:3px"/><path d="M2616.91,1203a513.43,513.43,0,0,0,9.38-69.14" style="fill:none;stroke:#fff;stroke-linecap:round;stroke-miterlimit:10;stroke-width:3px"/><path d="M1032.38,2734.6c-78.92-358.34,132.56-492.16,668.72-682,327.68-120,601.24-320,764.16-535.91" style="fill:none;stroke:#fff;stroke-linecap:round;stroke-miterlimit:10;stroke-width:3px"/><path d="M906.81,2619.1c-85.1-357,125.88-486.52,663.1-666.63,330.18-114.66,603.93-310.6,764.32-523.82" style="fill:none;stroke:#fff;stroke-linecap:round;stroke-miterlimit:10;stroke-width:3px"/><path d="M842.3,2571.55c-84.7-355.29,123.07-498.43,657.74-677.68,333.06-115.66,593.61-312.51,743.12-525.49" style="fill:none;stroke:#fff;stroke-linecap:round;stroke-miterlimit:10;stroke-width:3px"/><path d="M714.46,2465.32c-84.38-354,127.67-531.1,660.36-709.69,318.78-110.7,560.14-297.35,703.71-497.89" style="fill:none;stroke:#fff;stroke-linecap:round;stroke-miterlimit:10;stroke-width:3px"/><path d="M654.75,2410.86c-85.19-352.7,100.08-536.92,631.38-713.31,329.29-113.28,575.13-293.25,718-490.46" style="fill:none;stroke:#fff;stroke-linecap:round;stroke-miterlimit:10;stroke-width:3px"/><path d="M1409.45,3056.55c-85.28-372.38,134.64-509.55,693.36-702.27,764.32-272.85,1242.12-964.1,776.54-1331.18" style="fill:none;stroke:#fff;stroke-linecap:round;stroke-miterlimit:10;stroke-width:3px"/><line x1="1446.48" y1="3004.75" x2="510.23" y2="2200.46" style="fill:none;stroke:#fff;stroke-linecap:round;stroke-miterlimit:10;stroke-width:3px"/><line x1="1450.42" y1="2931.53" x2="474.77" y2="2114.98" style="fill:none;stroke:#fff;stroke-linecap:round;stroke-miterlimit:10;stroke-width:3px"/><line x1="1514.45" y1="2770.72" x2="509.46" y2="1960.19" style="fill:none;stroke:#fff;stroke-linecap:round;stroke-miterlimit:10;stroke-width:3px"/><line x1="1583.93" y1="2676.53" x2="561.27" y2="1862.91" style="fill:none;stroke:#fff;stroke-linecap:round;stroke-miterlimit:10;stroke-width:3px"/><line x1="1732.55" y1="2570.79" x2="682.51" y2="1734.89" style="fill:none;stroke:#fff;stroke-linecap:round;stroke-miterlimit:10;stroke-width:3px"/><line x1="1810.39" y1="2529.42" x2="756.08" y2="1689.89" style="fill:none;stroke:#fff;stroke-linecap:round;stroke-miterlimit:10;stroke-width:3px"/><line x1="1962.93" y1="2477.49" x2="880.56" y2="1607.62" style="fill:none;stroke:#fff;stroke-linecap:round;stroke-miterlimit:10;stroke-width:3px"/><line x1="2034.09" y1="2448.82" x2="940.82" y2="1580.65" style="fill:none;stroke:#fff;stroke-linecap:round;stroke-miterlimit:10;stroke-width:3px"/><line x1="2164.27" y1="2402.32" x2="1070.17" y2="1539.02" style="fill:none;stroke:#fff;stroke-linecap:round;stroke-miterlimit:10;stroke-width:3px"/><line x1="2221.48" y1="2384.13" x2="1129.32" y2="1519.32" style="fill:none;stroke:#fff;stroke-linecap:round;stroke-miterlimit:10;stroke-width:3px"/><line x1="2331.98" y1="2333.39" x2="1254.34" y2="1476" style="fill:none;stroke:#fff;stroke-linecap:round;stroke-miterlimit:10;stroke-width:3px"/><line x1="2389.06" y1="2302.46" x2="1315.45" y2="1452.4" style="fill:none;stroke:#fff;stroke-linecap:round;stroke-miterlimit:10;stroke-width:3px"/><line x1="2512.19" y1="2240.62" x2="1439.54" y2="1395.8" style="fill:none;stroke:#fff;stroke-linecap:round;stroke-miterlimit:10;stroke-width:3px"/><line x1="2578.32" y1="2199.84" x2="1501.22" y2="1361.89" style="fill:none;stroke:#fff;stroke-linecap:round;stroke-miterlimit:10;stroke-width:3px"/><line x1="2720.04" y1="2102.05" x2="1619.97" y2="1282.31" style="fill:none;stroke:#fff;stroke-linecap:round;stroke-miterlimit:10;stroke-width:3px"/><line x1="2790.65" y1="2039.42" x2="1678.37" y2="1234.86" style="fill:none;stroke:#fff;stroke-linecap:round;stroke-miterlimit:10;stroke-width:3px"/><line x1="2928.88" y1="1903.14" x2="1794.73" y2="1129.75" style="fill:none;stroke:#fff;stroke-linecap:round;stroke-miterlimit:10;stroke-width:3px"/><line x1="2989.11" y1="1831.04" x2="2636.37" y2="1597.07" style="fill:none;stroke:#fff;stroke-linecap:round;stroke-miterlimit:10;stroke-width:3px"/><line x1="3088.13" y1="1652.3" x2="2863.37" y2="1510.91" style="fill:none;stroke:#fff;stroke-linecap:round;stroke-miterlimit:10;stroke-width:3px"/><line x1="3113.23" y1="1581.03" x2="2904.3" y2="1450.41" style="fill:none;stroke:#fff;stroke-linecap:round;stroke-miterlimit:10;stroke-width:3px"/><line x1="3139.17" y1="1453.05" x2="2613.08" y2="1119.79" style="fill:none;stroke:#fff;stroke-linecap:round;stroke-miterlimit:10;stroke-width:3px"/><line x1="3137.21" y1="1395.42" x2="2655.64" y2="1087.55" style="fill:none;stroke:#fff;stroke-linecap:round;stroke-miterlimit:10;stroke-width:3px"/><line x1="3119.84" y1="1294.78" x2="2724.39" y2="1051.78" style="fill:none;stroke:#fff;stroke-linecap:round;stroke-miterlimit:10;stroke-width:3px"/><line x1="3104.3" y1="1253.79" x2="2763.62" y2="1041.86" style="fill:none;stroke:#fff;stroke-linecap:round;stroke-miterlimit:10;stroke-width:3px"/><path d="M2753.79,1292.85c15.51-79.63,12.39-157.37-12.11-230.12" style="fill:none;stroke:#fff;stroke-linecap:round;stroke-miterlimit:10;stroke-width:9px"/><path d="M1148.69,2833.81c-83.27-363.59,131.46-497.51,677-685.68,338-120.68,618.65-325.16,782.29-546.08" style="fill:none;stroke:#fff;stroke-linecap:round;stroke-miterlimit:10;stroke-width:9px"/><path d="M969.42,2669.43c-85.75-359.67,126.83-490.2,668.11-671.67,330-114.6,604.05-309.78,766.18-522.59" style="fill:none;stroke:#fff;stroke-linecap:round;stroke-miterlimit:10;stroke-width:9px"/><path d="M779.21,2519.3c-84.38-354,127.46-515.69,660.15-694.28,323.87-112.47,569.54-308.62,713.4-517.68" style="fill:none;stroke:#fff;stroke-linecap:round;stroke-miterlimit:10;stroke-width:9px"/><path d="M587.27,2305.55c-91.6-386,136.48-526.26,717.12-721.55,304.55-106.09,498.73-267.17,613.19-435.37" style="fill:none;stroke:#fff;stroke-linecap:round;stroke-miterlimit:10;stroke-width:9px"/><path d="M1344.59,3003.37C1259.31,2631,1479.23,2493.83,2038,2301.1,2802.28,2028.25,3280.07,1337,2814.5,969.92" style="fill:none;stroke:#fff;stroke-linecap:round;stroke-miterlimit:10;stroke-width:9px"/><line x1="1467.34" y1="2850.98" x2="481.74" y2="2040.06" style="fill:none;stroke:#fff;stroke-linecap:round;stroke-miterlimit:10;stroke-width:9px"/><line x1="1657.51" y1="2621.56" x2="620.01" y2="1799.79" style="fill:none;stroke:#fff;stroke-linecap:round;stroke-miterlimit:10;stroke-width:9px"/><line x1="1884.28" y1="2503.02" x2="811.7" y2="1643.14" style="fill:none;stroke:#fff;stroke-linecap:round;stroke-miterlimit:10;stroke-width:9px"/><line x1="2098.28" y1="2427.95" x2="1009.95" y2="1559.68" style="fill:none;stroke:#fff;stroke-linecap:round;stroke-miterlimit:10;stroke-width:9px"/><line x1="2279.39" y1="2359.54" x2="1191.75" y2="1498.25" style="fill:none;stroke:#fff;stroke-linecap:round;stroke-miterlimit:10;stroke-width:9px"/><line x1="2451.04" y1="2277.41" x2="1375.08" y2="1426.89" style="fill:none;stroke:#fff;stroke-linecap:round;stroke-miterlimit:10;stroke-width:9px"/><line x1="2651.39" y1="2156.86" x2="1566.75" y2="1320.55" style="fill:none;stroke:#fff;stroke-linecap:round;stroke-miterlimit:10;stroke-width:9px"/><line x1="2861.37" y1="1971.01" x2="1732.73" y2="1184.87" style="fill:none;stroke:#fff;stroke-linecap:round;stroke-miterlimit:10;stroke-width:9px"/><line x1="3041.3" y1="1745.16" x2="2789.54" y2="1577.07" style="fill:none;stroke:#fff;stroke-linecap:round;stroke-miterlimit:10;stroke-width:9px"/><line x1="3129.79" y1="1516.73" x2="2570.1" y2="1160.05" style="fill:none;stroke:#fff;stroke-linecap:round;stroke-miterlimit:10;stroke-width:9px"/><line x1="3132.45" y1="1341.43" x2="2693.72" y2="1065.64" style="fill:none;stroke:#fff;stroke-linecap:round;stroke-miterlimit:10;stroke-width:9px"/><line x1="3083" y1="1210.09" x2="2793.57" y2="1032.49" style="fill:none;stroke:#fff;stroke-linecap:round;stroke-miterlimit:10;stroke-width:9px"/><line x1="3046.9" y1="1156.73" x2="2839.21" y2="1029.47" style="fill:none;stroke:#fff;stroke-linecap:round;stroke-miterlimit:10;stroke-width:4px"/><path d="M1556.91,3180.33,667.28,2413.47c-64.92-60.1-100.63-112.76-130.5-172-81.71-166.66-30.8-317.82,99.28-459.72,300.62-324.58,770.31-193,1193.27-701.72" style="fill:none;stroke:#000;stroke-linecap:round;stroke-miterlimit:10;stroke-width:40px"/><path d="M2544.73,1555.63,1601.22,924.14c-93-64.64-171.14-233.84-62.72-378,90.44-129.83,256.29-182.58,343.52-128.27L2935.58,1058.7" style="fill:none;stroke:#000;stroke-linecap:round;stroke-miterlimit:10;stroke-width:40px"/><path d="M2560,1180.83l362.24,236.07c-92.57,186.4-222.56,236.39-377.46,138.73-112.48-80.36-82.32-289.18,56.14-419.48,179.46-161.15,354.45-129.61,477.22,65.11,122,214.56,58.81,429.2-94.56,630.17-79.8,104.59-184,205.47-299.31,300.72-286.68,224-682.81,305.35-944.44,452.14-73.42,41.19-136.24,87.52-183.08,143.61-122.84,146.46-121.33,345.07.22,452.43,112.07,93.84,264.09,56,403.1-92.14,106.67-120.83,100.34-249.64-11-346.15q-3.52-2.86-7.2-5.43c-72-50.44-183.64-18.71-271.16,57.85l-99.45-82" style="fill:none;stroke:#000;stroke-linecap:round;stroke-linejoin:round;stroke-width:40px"/><line x1="1739.78" y1="2584.28" x2="1949.07" y2="2742.03" style="fill:none;stroke:#000;stroke-linecap:round;stroke-linejoin:round;stroke-width:40px"/><polygon points="2280.93 1114.05 2393.79 1006.12 2355.49 981.86 2384.58 953.39 2494.39 1024.18 2465.91 1052.04 2427.11 1027.46 2314.86 1135.55 2280.93 1114.05" style="fill:#fff"/><polygon points="2275.81 884.49 2134.59 1020.47 2235.99 1085.59 2264.32 1058.69 2195.61 1014.99 2223.97 987.23 2279.64 1023.37 2307.76 996.53 2251.62 960.43 2280.82 932.32 2345.01 973.69 2373.02 947.3 2275.81 884.49" style="fill:#fff"/><polygon points="2086.09 990.63 2123.38 1014.25 2264.16 877.11 2225.02 852.31 2115.63 881.94 2125.48 789.25 2091.88 767.97 1950.26 904.59 1983.68 925.76 2081.72 832.64 2070.82 930.82 2178.6 901.82 2086.09 990.63" style="fill:#fff"/><path d="M1957.1,826.64c-17.84,17.29-35.83,21.44-54.23,7.84-15.19-9.46-15.44-26.9,5.85-45.73L1954,747.68c11.5-10.9,28.66-14.86,42.52-6.08l7.81,4.95c12.47,7.9,9.18,26.47-5.46,40.67Zm-82.32-59.56c-27.49,25.83-32.55,71.72,5.88,96,34.69,22.72,73.57,19.59,114.55-16.94L2032,811c31-29.77,25.22-73.53-8-94.6-41.23-26.33-80.81-14.29-105.94,9.5Z" style="fill:#fff"/><path d="M1860.33,762.68c-39.86,34-77.67,36.45-111.5,14.3-30.86-19.55-33.68-53-19.34-78.81L1641,642.1l36.55-15L1785,695.21l-8.12,7.37c-6.58,5.83-11.1,11.53-13.76,16.9-5.93,12-2.57,22.32,7.92,28.84,18.39,13.6,36.38,9.45,54.23-7.84Z" style="fill:#fff"/><path d="M1826.23,658.13a38.7,38.7,0,0,0-4.09,3.39l-25,22.68-101.7-64.43,42.64-17.47Z" style="fill:#fff"/><path d="M1901.86,723.14,1867,701.06a49.33,49.33,0,0,0,8.91-11.46c3-5.38,4.46-10.81,4.23-15.69a16.22,16.22,0,0,0-7.67-13.52l-7.82-4.95a30.91,30.91,0,0,0-20.82-4.53l-88.12-55.82L1804.79,575l87.29,55.3C1924.71,650.93,1930.92,693.43,1901.86,723.14Z" style="fill:#fff"/></svg>